<?xml version="1.0" encoding="utf-8"?>
<!-- Generator: Adobe Illustrator 25.0.1, SVG Export Plug-In . SVG Version: 6.00 Build 0)  -->
<svg version="1.1" id="Logo" xmlns="http://www.w3.org/2000/svg" xmlns:xlink="http://www.w3.org/1999/xlink" x="0px" y="0px"
	 viewBox="0 0 250 250" style="enable-background:new 0 0 250 250;" xml:space="preserve">
<style type="text/css">
	.st0{fill:#9D2449;}
</style>
<path class="st0" d="M248.3,70.1l-24.8-11.3l23-6.7c1.2-0.4,2.1-1.5,2.1-2.8c0-1.3-0.9-2.4-2.1-2.7L154,20.7c-0.5-0.1-1-0.1-1.5,0
	l-26.6,7.2l-26.6-7.2c-0.5-0.1-1-0.1-1.5,0L5.3,46.6c-1.2,0.3-2.1,1.5-2.1,2.7c0,1.3,0.8,2.4,2.1,2.8l21.9,6.4L1.7,70.1
	C0.6,70.6,0,71.6,0,72.8C0,74,0.8,75,1.9,75.4l30.1,11v109.5c0,1.2,0.8,2.3,2,2.7l91,30.6c0.1,0,0.1,0,0.2,0.1c0.1,0,0.1,0,0.2,0
	c0.2,0,0.4,0.1,0.5,0.1c0.2,0,0.5,0,0.7-0.1c0,0,0.1,0,0.1,0l91-25.8c1.2-0.4,2.1-1.5,2.1-2.8V86.1c0-0.1,0-0.2,0-0.3l28.4-10.4
	c1.1-0.4,1.8-1.4,1.9-2.6C250,71.6,249.4,70.6,248.3,70.1z M125.9,82.4L43.4,57.3l82.5-23.4l82.5,23.4L125.9,82.4z M153.2,26.5
	l82,22.9l-16.8,4.9c-0.2-0.1-0.5-0.3-0.7-0.3l-81.1-23L153.2,26.5z M98.5,26.5l16.6,4.5l-81.1,23c-0.3,0.1-0.5,0.2-0.7,0.3
	l-16.8-4.9L98.5,26.5z M35.6,60.9l1.3,0.4l85.4,26c-0.2,0.2-0.4,0.4-0.5,0.7c0,0,0,0,0,0.1l-28.6,14.7L10.4,72.4L35.6,60.9z
	 M37.7,88.5l54.7,20.1c0.3,0.1,0.7,0.2,1,0.2c0.5,0,0.9-0.1,1.3-0.3L123,93.9v128.6l-85.3-28.7V88.5z M214,198.5l-85.3,24.2V94.8
	l26.5,13.7c0.4,0.2,0.9,0.3,1.3,0.3c0.3,0,0.7-0.1,1-0.2L214,87.9V198.5z M212.6,82.3l-55.8,20.5l-28.1-14.5v-0.8l86-26.2l0.3-0.1
	l24.5,11.2L212.6,82.3z"/>
</svg>
