<?xml version="1.0" encoding="utf-8"?>
<!-- Generator: Adobe Illustrator 25.0.1, SVG Export Plug-In . SVG Version: 6.00 Build 0)  -->
<svg version="1.1" id="Capa_1" xmlns="http://www.w3.org/2000/svg" xmlns:xlink="http://www.w3.org/1999/xlink" x="0px" y="0px"
	 viewBox="0 0 250 250" style="enable-background:new 0 0 250 250;" xml:space="preserve">
<style type="text/css">
	.st0{fill:#9D2449;}
</style>
<path class="st0" d="M176.4,131.4c20-8.4,34.1-28.1,34.1-51.1c0-30.6-24.9-55.4-55.4-55.4c-1.9,0-3.8,0.1-5.7,0.3
	C138.1,9.9,120.1,0,99.8,0C66,0,38.5,27.5,38.5,61.3c0,26.5,16.9,49.1,40.4,57.7c-32.6,9.7-56.4,39.8-56.4,75.5v52
	c0,1.9,1.5,3.5,3.5,3.5h150.6H224c1.9,0,3.5-1.6,3.5-3.5v-46.7C227.4,167.3,205.8,139.8,176.4,131.4z M155.1,31.8
	c26.7,0,48.5,21.7,48.5,48.5s-21.8,48.5-48.5,48.5c-4.6,0-9.1-0.6-13.4-1.9c-4.4-2.6-9.1-4.8-13.9-6.6c-1.2-0.8-2.4-1.7-3.5-2.7
	c21.8-9.4,37-31.1,37-56.3c0-10.7-2.8-20.8-7.6-29.5C154.1,31.8,154.6,31.8,155.1,31.8z M45.4,61.3c0-30,24.4-54.4,54.4-54.4
	c18.2,0,34.4,9,44.3,22.8c0.2,0.8,0.7,1.5,1.3,1.9c5.6,8.5,8.8,18.7,8.8,29.6c0,30-24.4,54.4-54.4,54.4S45.4,91.3,45.4,61.3z
	 M29.5,194.5c0-39.6,32.2-71.8,71.8-71.8c8.1,0,15.9,1.4,23.2,3.9c4.4,2.9,9.3,5.2,14.3,6.7c20.6,12.6,34.3,35.4,34.3,61.2v48.6
	H29.5V194.5z M220.5,243.1h-40.4v-48.6c0-23.3-10.2-44.2-26.3-58.7c1.3-0.1,2.5-0.1,3.8-0.1c34.7,0,62.9,28.8,62.9,64.1V243.1z"/>
</svg>
