<?xml version="1.0" encoding="utf-8"?>
<!-- Generator: Adobe Illustrator 25.0.1, SVG Export Plug-In . SVG Version: 6.00 Build 0)  -->
<svg version="1.1" id="Documentos" xmlns="http://www.w3.org/2000/svg" xmlns:xlink="http://www.w3.org/1999/xlink" x="0px" y="0px"
	 viewBox="0 0 250 250" style="enable-background:new 0 0 250 250;" xml:space="preserve">
<style type="text/css">
	.st0{fill:#9D2449;}
</style>
<g>
	<path class="st0" d="M1.9,65.6l121.6,61.2c0.5,0.2,1,0.4,1.5,0.4c0.5,0,1.1-0.1,1.5-0.4l121.6-61.2c1.2-0.6,1.9-1.8,1.9-3.1
		c0-1.3-0.8-2.5-2-3l-121.6-57c-0.9-0.4-2-0.4-2.9,0L2,59.4c-1.2,0.6-1.9,1.7-2,3C0,63.8,0.7,65,1.9,65.6z M125,9.3l113.8,53.3
		L125,119.9L11.2,62.6L125,9.3z"/>
	<path class="st0" d="M248,98.5l-26.4-12.4c-1.7-0.8-3.7-0.1-4.5,1.6c-0.8,1.7-0.1,3.7,1.6,4.5l20.1,9.4L125,159L11.2,101.7
		l19.7-9.2c1.7-0.8,2.4-2.8,1.6-4.5c-0.8-1.7-2.8-2.4-4.5-1.6L2,98.5c-1.2,0.6-1.9,1.7-2,3c0,1.3,0.7,2.5,1.9,3.1l121.6,61.2
		c0.5,0.2,1,0.4,1.5,0.4c0.5,0,1.1-0.1,1.5-0.4l121.6-61.2c1.2-0.6,1.9-1.8,1.9-3.1C250,100.2,249.2,99.1,248,98.5z"/>
	<path class="st0" d="M248,137.2l-26.4-12.4c-1.7-0.8-3.7-0.1-4.5,1.6c-0.8,1.7-0.1,3.7,1.6,4.5l20.1,9.4L125,197.7L11.2,140.4
		l19.7-9.2c1.7-0.8,2.4-2.8,1.6-4.5c-0.8-1.7-2.8-2.4-4.5-1.6L2,137.2c-1.2,0.6-1.9,1.7-2,3c0,1.3,0.7,2.5,1.9,3.1l121.6,61.2
		c0.5,0.2,1,0.4,1.5,0.4c0.5,0,1.1-0.1,1.5-0.4l121.6-61.2c1.2-0.6,1.9-1.8,1.9-3.1C250,138.9,249.2,137.8,248,137.2z"/>
	<path class="st0" d="M248,180.2l-26.4-12.4c-1.7-0.8-3.7-0.1-4.5,1.6c-0.8,1.7-0.1,3.7,1.6,4.5l20.1,9.4L125,240.6L11.2,183.4
		l19.7-9.2c1.7-0.8,2.4-2.8,1.6-4.5c-0.8-1.7-2.8-2.4-4.5-1.6L2,180.2c-1.2,0.6-1.9,1.7-2,3c0,1.3,0.7,2.5,1.9,3.1l121.6,61.2
		c0.5,0.2,1,0.4,1.5,0.4c0.5,0,1.1-0.1,1.5-0.4l121.6-61.2c1.2-0.6,1.9-1.8,1.9-3.1C250,181.9,249.2,180.7,248,180.2z"/>
</g>
</svg>
