<svg id="Eventos" xmlns="http://www.w3.org/2000/svg" viewBox="0 0 250 246.96"><defs><style>.cls-1{fill:none;}.cls-2{fill:#9d2449;}</style></defs><path class="cls-1" d="M186.59,52.62a3.41,3.41,0,0,1-3.41-3.41V34.31H65.08v14.9a3.41,3.41,0,1,1-6.81,0V34.31H6.81V61.14H243.19V34.31H190v14.9A3.41,3.41,0,0,1,186.59,52.62Z" transform="translate(0 -1.52)"/><path class="cls-1" d="M243.19,241.67V68H6.81V241.67Zm-77.78-88.88q-5.61-3.67-16.8-3.68h-2.22v-6h2.32q20.88-.1,20.88-13.22a12.7,12.7,0,0,0-3.93-9.79q-3.93-3.63-11.15-3.63T143,119.6a12.82,12.82,0,0,0-5.2,8.83h-6.76a18.4,18.4,0,0,1,7.47-13.17q6.45-4.79,16.24-4.79t15.59,5.3a17.42,17.42,0,0,1,5.8,13.46,16.77,16.77,0,0,1-3.38,10.3,17.12,17.12,0,0,1-9,6.25v.51a16.84,16.84,0,0,1,10.09,6.76q3.63,5.14,3.63,13.41a18.77,18.77,0,0,1-6,14q-6,5.74-16.49,5.75t-17.21-5.3q-6.66-5.3-7.67-14.78h6.56a14.9,14.9,0,0,0,5.5,10q4.78,4,12.61,4t12-4.13a14.53,14.53,0,0,0,4.19-10.8Q171,156.48,165.41,152.79ZM99.58,121.92q-3.63-4.29-11.51-4.29t-12,4.74q-4.18,4.75-4.59,12.41H64.77q.49-11.09,6.76-17.15t16.19-6q9.93,0,16.09,5.6T110,133a26,26,0,0,1-1.82,9.23,44.4,44.4,0,0,1-4.13,8.37,63.64,63.64,0,0,1-6.66,8.27q-4.35,4.69-7,7.17c-1.79,1.65-4.39,4-7.83,7s-5.61,4.93-6.55,5.8h36.42v6H64.77V180q2.33-2,6.91-5.95t7-6.05q2.43-2.13,6.31-5.71c2.59-2.38,4.6-4.37,6-6s3.06-3.46,4.85-5.65a38.94,38.94,0,0,0,4.08-5.9,27.43,27.43,0,0,0,3.23-12.46A15.54,15.54,0,0,0,99.58,121.92Z" transform="translate(0 -1.52)"/><path class="cls-2" d="M112.39,178.77H76q1.41-1.31,6.55-5.8c3.44-3,6-5.31,7.83-7s4.11-4,7-7.17a63.64,63.64,0,0,0,6.66-8.27,44.4,44.4,0,0,0,4.13-8.37A26,26,0,0,0,110,133q0-10.18-6.16-15.79t-16.09-5.6q-9.93,0-16.19,6t-6.76,17.15h6.66q.41-7.67,4.59-12.41t12-4.74q7.88,0,11.51,4.29a15.54,15.54,0,0,1,3.63,10.39A27.43,27.43,0,0,1,100,144.77a38.94,38.94,0,0,1-4.08,5.9c-1.79,2.19-3.4,4.07-4.85,5.65s-3.46,3.57-6,6-4.69,4.29-6.31,5.71-4,3.43-7,6.05-5.36,4.61-6.91,5.95v4.84h47.62Z" transform="translate(0 -1.52)"/><path class="cls-2" d="M154.81,180.18q-7.81,0-12.61-4a14.9,14.9,0,0,1-5.5-10h-6.56q1,9.48,7.67,14.78t17.21,5.3q10.53,0,16.49-5.75a18.77,18.77,0,0,0,6-14q0-8.27-3.63-13.41a16.84,16.84,0,0,0-10.09-6.76v-.51a17.12,17.12,0,0,0,9-6.25,16.77,16.77,0,0,0,3.38-10.3,17.42,17.42,0,0,0-5.8-13.46q-5.81-5.31-15.59-5.3t-16.24,4.79a18.4,18.4,0,0,0-7.47,13.17h6.76a12.82,12.82,0,0,1,5.2-8.83q4.29-3.07,11.5-3.08t11.15,3.63a12.7,12.7,0,0,1,3.93,9.79q0,13.11-20.88,13.22h-2.32v6h2.22q11.19,0,16.8,3.68t5.6,12.46a14.53,14.53,0,0,1-4.19,10.8Q162.64,180.19,154.81,180.18Z" transform="translate(0 -1.52)"/><path class="cls-2" d="M246.59,27.5H190V4.93a3.41,3.41,0,1,0-6.81,0V27.5H65.08V4.93a3.41,3.41,0,1,0-6.81,0V27.5H3.41A3.4,3.4,0,0,0,0,30.9V245.07a3.4,3.4,0,0,0,3.41,3.41H246.59a3.4,3.4,0,0,0,3.41-3.41V30.9A3.4,3.4,0,0,0,246.59,27.5Zm-3.4,214.17H6.81V68H243.19Zm0-180.53H6.81V34.31H58.27v14.9a3.41,3.41,0,1,0,6.81,0V34.31h118.1v14.9a3.41,3.41,0,1,0,6.81,0V34.31h53.2Z" transform="translate(0 -1.52)"/></svg>