<?xml version="1.0" encoding="utf-8"?>
<!-- Generator: Adobe Illustrator 25.0.1, SVG Export Plug-In . SVG Version: 6.00 Build 0)  -->
<svg version="1.1" id="Logo" xmlns="http://www.w3.org/2000/svg" xmlns:xlink="http://www.w3.org/1999/xlink" x="0px" y="0px"
	 viewBox="0 0 250 250" style="enable-background:new 0 0 250 250;" xml:space="preserve">
<style type="text/css">
	.st0{fill:#9D2449;}
</style>
<g>
	<path class="st0" d="M177.4,0c-0.3,0-0.8,0.2-0.8,1.2l0.1,8.3L128,9l-6.1,19.4c0,0-13.3,2.8-20.4,6.3L84.6,19.1L64.7,32.8l5.1,21.5
		c0,0-6.8,6.9-11.3,14.8l-21.7-5.1L25.1,84.5l16.8,18c0,0-2.6,7.5-3.7,16l-22.9,6.2l0.1,23.4l25.3,7.7c0,0,0.7,8.1,3.5,13l-15,16.8
		L40.7,205l22.2-5.1c0,0,7.9,11.1,13.1,12.6l-4.2,22.4l22.9,11.3l15.7-16.3c0,0,9.8,5.7,20.2,5.7l5.1,14.2l17.5,0.2l-0.6-35.4
		l-19.9,0.7c0,0-34.2-1-53.8-26.4c-19.5-25.4-20.6-48.9-20.6-48.9s-6.3-45.6,31.1-73.6c0,0,17.1-14.8,42.2-18.9l45.1-0.2l0.1,5.3
		c0,0,0.1,2.4,1.6,1.2L234.1,24c0,0,1.3-0.4,0.1-1L177.8,0C177.8,0,177.6,0,177.4,0L177.4,0z M144.6,15.8h48.5
		c3.8,0,6.9,4.6,6.9,10.4V27c0,5.8-3.1,10.4-6.9,10.4h-48.5c-3.8,0-6.9-4.6-6.9-10.4v-0.8C137.7,20.5,140.8,15.8,144.6,15.8
		L144.6,15.8z M144.6,15.8"/>
	<path class="st0" d="M177.9,35.7h4.2L182,20.6c0,0-0.1-1.9,1.6-2.2l-3.8,0.1c0,0-2,0-2,3.8C177.9,26,177.9,35.7,177.9,35.7
		L177.9,35.7z M177.9,35.7"/>
	<path class="st0" d="M177.9,35.7h4.2L182,20.6c0,0-0.1-1.9,1.6-2.2l-3.8,0.1c0,0-2,0-2,3.8C177.9,26,177.9,35.7,177.9,35.7
		L177.9,35.7z M177.9,35.7"/>
	<path class="st0" d="M185.5,17.6c-0.2,0-0.3,0-0.3,0s1.9,1.5,2,5.1c-0.1,3.6-2,5.1-2,5.1s4.8,0.6,5-5h0c0-0.1,0-0.1,0-0.2
		c0-0.1,0-0.1,0-0.2h0C190,17.9,186.6,17.5,185.5,17.6L185.5,17.6z M185.5,17.6"/>
	<path class="st0" d="M185.5,17.6c-0.2,0-0.3,0-0.3,0s1.9,1.5,2,5.1c-0.1,3.6-2,5.1-2,5.1s4.8,0.6,5-5h0c0-0.1,0-0.1,0-0.2
		c0-0.1,0-0.1,0-0.2h0C190,17.9,186.6,17.5,185.5,17.6L185.5,17.6z M185.5,17.6"/>
	<path class="st0" d="M176,22.7c0-5.9-5-5.3-5-5.3s1.9,1.6,2,5.3"/>
	<path class="st0" d="M176,22.4c0,5.9-5,5.3-5,5.3s1.9-1.6,2-5.2"/>
	<path class="st0" d="M172.5,29.8l3.6-0.2c0,0,0.6,6.3-5.3,6.2C170.8,35.8,172.4,34.5,172.5,29.8L172.5,29.8z M172.5,29.8"/>
	<path class="st0" d="M172.5,29.8l3.6-0.2c0,0,0.6,6.3-5.3,6.2C170.8,35.8,172.4,34.5,172.5,29.8L172.5,29.8z M172.5,29.8"/>
	<path class="st0" d="M162.1,27c0.1-9.8,5.8-8,5.8-8s-1.1,1.6-1.2,7.7"/>
	<path class="st0" d="M162.1,27c0.1,9.8,6.1,8.1,6.1,8.1s-1.4-2.4-1.5-8.5"/>
	<path class="st0" d="M153.2,29.4l-4-0.1c0,0-1.1,6.5,4.3,6.4c0,0-0.5-1.3-0.5-6.3H153.2z M153.2,29.4"/>
	<path class="st0" d="M160.5,23.6c0,0,1.4-6.3-4.7-6.1c0,0,2.7,1.6,2.8,4.4c0,0-0.2,1.6,1,1.7L160.5,23.6z M160.5,23.6"/>
	<path class="st0" d="M160.5,23.6c0,0,1.4-6.3-4.7-6.1c0,0,2.7,1.6,2.8,4.4c0,0-0.2,1.6,1,1.7L160.5,23.6z M160.5,23.6"/>
	<path class="st0" d="M153,18.8c0,0-1.2,5.3,5.5,7.8c0,0,2,0.5,2,3.9c0,0,0.1,4-1.4,4.1l-3-0.1c0,0,1.3,0.2,1.4-2.7c0,0,0.2-1.9-2-3
		l-3.6-2.5c0,0-2.3-1.3-2.3-3.7l0-1c0,0-0.3-2.9,1.4-2.9H153z M153,18.8"/>
	<path class="st0" d="M153,18.8c0,0-1.2,5.3,5.5,7.8c0,0,2,0.5,2,3.9c0,0,0.1,4-1.4,4.1l-3-0.1c0,0,1.3,0.2,1.4-2.7c0,0,0.2-1.9-2-3
		l-3.6-2.5c0,0-2.3-1.3-2.3-3.7l0-1c0,0-0.3-2.9,1.4-2.9H153z M153,18.8"/>
	<path class="st0" d="M141.7,54.3c-42.5,0-77,34.8-77,77.7c0,20.6,8.1,40.4,22.5,55c14.4,14.6,34,22.8,54.4,22.8
		c42.5,0,77-34.8,77-77.7S184.2,54.3,141.7,54.3L141.7,54.3z M141.8,61.7c18.8,0,36.8,7.4,50.1,20.7c13.3,13.3,20.8,31.2,20.8,50
		c0,39-31.7,70.7-70.9,70.7c-18.8,0-36.8-7.4-50.1-20.7c-13.3-13.3-20.8-31.2-20.8-50c0-18.7,7.5-36.7,20.8-50
		C104.9,69.1,123,61.7,141.8,61.7L141.8,61.7z M141.8,61.7"/>
	<path class="st0" d="M141.7,54.3c-42.5,0-77,34.8-77,77.7c0,20.6,8.1,40.4,22.5,55c14.4,14.6,34,22.8,54.4,22.8
		c42.5,0,77-34.8,77-77.7S184.2,54.3,141.7,54.3L141.7,54.3z M141.8,61.7c18.8,0,36.8,7.4,50.1,20.7c13.3,13.3,20.8,31.2,20.8,50
		c0,39-31.7,70.7-70.9,70.7c-18.8,0-36.8-7.4-50.1-20.7c-13.3-13.3-20.8-31.2-20.8-50c0-18.7,7.5-36.7,20.8-50
		C104.9,69.1,123,61.7,141.8,61.7L141.8,61.7z M141.8,61.7"/>
	<path class="st0" d="M113.7,80.1c-6.7,0-11.9,0.1-11.9,0.1l0.1,39.1l19.9,0c0,0,10.8,0,10.6-10.4l-0.1-18.2c0,0-0.2-10.4-11.7-10.6
		C118.3,80.1,116,80.1,113.7,80.1L113.7,80.1z M114.2,86.1c0,0,1.6,0,4.9,0.1c3.2,0.1,3.4,3.5,3.4,3.5s0.1,16.5,0.1,20.3
		c0.1,3.7-3.7,3.5-3.7,3.5h-4.6l-0.1-27L114.2,86.1z M114.2,86.1"/>
	<path class="st0" d="M113.7,80.1c-6.7,0-11.9,0.1-11.9,0.1l0.1,39.1l19.9,0c0,0,10.8,0,10.6-10.4l-0.1-18.2c0,0-0.2-10.4-11.7-10.6
		C118.3,80.1,116,80.1,113.7,80.1L113.7,80.1z M114.2,86.1c0,0,1.6,0,4.9,0.1c3.2,0.1,3.4,3.5,3.4,3.5s0.1,16.5,0.1,20.3
		c0.1,3.7-3.7,3.5-3.7,3.5h-4.6l-0.1-27L114.2,86.1z M114.2,86.1"/>
	<path class="st0" d="M160.5,86.5c-3.9,0-3.8,3-3.8,3l0.2,21.2c0,0-0.2,4.8,4.2,4.7c4.3,0,4-3.9,4-3.9v-1.7c0-4.1-2.6-4.1-2.6-4.1
		l-1.2-0.1l0-3.9l14.8-0.1l0.2,11.4c0,0,1.2,8-12,8.1l-7.1,0c0,0-11.7,0.3-11.8-8.9V88.6c0,0,0.4-7.9,12.5-8.2h6.9
		c0,0,11.5,0.2,11.5,9.1l-0.1,3l-11.1,0l0-3c0,0,0.2-3-4.2-3H160.5z M160.5,86.5"/>
	<path class="st0" d="M160.5,86.5c-3.9,0-3.8,3-3.8,3l0.2,21.2c0,0-0.2,4.8,4.2,4.7c4.3,0,4-3.9,4-3.9v-1.7c0-4.1-2.6-4.1-2.6-4.1
		l-1.2-0.1l0-3.9l14.8-0.1l0.2,11.4c0,0,1.2,8-12,8.1l-7.1,0c0,0-11.7,0.3-11.8-8.9V88.6c0,0,0.4-7.9,12.5-8.2h6.9
		c0,0,11.5,0.2,11.5,9.1l-0.1,3l-11.1,0l0-3c0,0,0.2-3-4.2-3H160.5z M160.5,86.5"/>
	<path class="st0" d="M101.3,125.2h78.3v6.2l-22.9,7.8v39.7l-15.6,0.2v-39.9l-39.8-6.5V125.2z M101.3,125.2"/>
	<path class="st0" d="M101.3,125.2h78.3v6.2l-22.9,7.8v39.7l-15.6,0.2v-39.9l-39.8-6.5V125.2z M101.3,125.2"/>
	<path class="st0" d="M164.4,141.1h12.7c0,0,0,0,0,0v38c0,0,0,0,0,0h-12.7c0,0,0,0,0,0L164.4,141.1
		C164.4,141.1,164.4,141.1,164.4,141.1L164.4,141.1z M164.4,141.1"/>
	<path class="st0" d="M164.4,141.1h12.7c0,0,0,0,0,0v38c0,0,0,0,0,0h-12.7c0,0,0,0,0,0L164.4,141.1
		C164.4,141.1,164.4,141.1,164.4,141.1L164.4,141.1z M164.4,141.1"/>
	<path class="st0" d="M130.9,179.2v-6.5h-16.4v-8.8l14.9,0.2v-8.5h-14.9v-7.4h16.4v-7.8l-30.5-0.2v39.2L130.9,179.2z M130.9,179.2"
		/>
	<path class="st0" d="M130.9,179.2v-6.5h-16.4v-8.8l14.9,0.2v-8.5h-14.9v-7.4h16.4v-7.8l-30.5-0.2v39.2L130.9,179.2z M130.9,179.2"
		/>
</g>
</svg>
