<?xml version="1.0" encoding="utf-8"?>
<!-- Generator: Adobe Illustrator 25.0.1, SVG Export Plug-In . SVG Version: 6.00 Build 0)  -->
<svg version="1.1" id="Novedades" xmlns="http://www.w3.org/2000/svg" xmlns:xlink="http://www.w3.org/1999/xlink" x="0px" y="0px"
	 viewBox="0 0 250 250" style="enable-background:new 0 0 250 250;" xml:space="preserve">
<style type="text/css">
	.st0{fill:#9D2449;}
</style>
<g>
	<path class="st0" d="M246.2,1.9L43.2,2.5c-2.1,0-3.8,1.7-3.8,3.8c0,2.1,1.7,3.8,3.8,3.8l199.1-0.6l-0.6,230.9H7.6V44.5h201v165.4
		c0,2.1,1.7,3.8,3.8,3.8c2.1,0,3.8-1.7,3.8-3.8V44.4c0-4.1-3.4-7.5-7.5-7.5H6.8C3.1,36.9,0,40,0,43.7v196.8c0,4.2,3.4,7.6,7.6,7.6
		h234.2c4.2,0,7.6-3.4,7.6-7.6L250,5.7C250,3.6,248.3,1.9,246.2,1.9z"/>
	<path class="st0" d="M44.5,215.8h148.9c2.1,0,3.8-1.7,3.8-3.8c0-2.1-1.7-3.8-3.8-3.8H44.5c-2.1,0-3.8,1.7-3.8,3.8
		C40.7,214.1,42.4,215.8,44.5,215.8z"/>
	<path class="st0" d="M44.1,181.5H191c2.1,0,3.8-1.7,3.8-3.8c0-2.1-1.7-3.8-3.8-3.8H44.1c-2.1,0-3.8,1.7-3.8,3.8
		C40.2,179.7,41.9,181.5,44.1,181.5z"/>
	<path class="st0" d="M114.5,137.8V75.9c0-3.1-2.5-5.7-5.7-5.7H35.5v0c-3.1,0.1-5.5,2.6-5.5,5.7l0.5,61.9c0,3.1,2.6,5.6,5.7,5.6
		h72.7C112,143.5,114.5,140.9,114.5,137.8z M106.9,135.8H38.2v-58h68.7V135.8z"/>
	<path class="st0" d="M188.6,70.8h-57.7c-2.1,0-3.8,1.7-3.8,3.8c0,2.1,1.7,3.8,3.8,3.8h57.7c2.1,0,3.8-1.7,3.8-3.8
		C192.4,72.5,190.7,70.8,188.6,70.8z"/>
	<path class="st0" d="M131.4,106.1c-2.1,0-3.8,1.7-3.8,3.8c0,2.1,1.7,3.8,3.8,3.8h57.7c2.1,0,3.8-1.7,3.8-3.8c0-2.1-1.7-3.8-3.8-3.8
		H131.4z"/>
	<path class="st0" d="M129.9,147.6h57.7c2.1,0,3.8-1.7,3.8-3.8c0-2.1-1.7-3.8-3.8-3.8h-57.7c-2.1,0-3.8,1.7-3.8,3.8
		C126.1,145.9,127.8,147.6,129.9,147.6z"/>
</g>
</svg>
